<svg width="24" height="24" viewBox="0 0 24 24" fill="none" xmlns="http://www.w3.org/2000/svg">
<path d="M20.4461 16.0607C20.5423 16.2506 20.5077 16.4805 20.36 16.6337C20.2122 16.7868 19.9837 16.8297 19.7905 16.7406L17.2912 15.587C15.1906 14.6175 12.8982 14.174 10.6098 14.2783C10.5827 15.0132 10.5423 15.7477 10.4888 16.4815L10.4204 17.4204C10.3789 17.9901 9.7437 18.3085 9.26241 18.001C7.17342 16.6662 5.35736 14.9462 3.91104 12.9328L3.45085 12.2922C3.32563 12.1179 3.32563 11.8831 3.45085 11.7088L3.91103 11.0681C5.35736 9.05474 7.17342 7.33479 9.26241 5.99997C9.7437 5.69243 10.3789 6.01087 10.4204 6.58051L10.4888 7.51948C10.5348 8.14933 10.571 8.77972 10.5975 9.41041H11.2406C14.8216 9.41041 18.0983 11.4241 19.716 14.6188L20.4461 16.0607Z" fill="white"/>
</svg>
